<?xml version="1.0" encoding="UTF-8" standalone="no"?>
<svg
   width="100"
   height="100"
   viewBox="0 0 100 100"
   fill="none"
   version="1.1"
   id="svg1"
   sodipodi:docname="UnionV.svg"
   inkscape:version="1.3 (0e150ed6c4, 2023-07-21)"
   xmlns:inkscape="http://www.inkscape.org/namespaces/inkscape"
   xmlns:sodipodi="http://sodipodi.sourceforge.net/DTD/sodipodi-0.dtd"
   xmlns="http://www.w3.org/2000/svg"
   xmlns:svg="http://www.w3.org/2000/svg">
  <defs
     id="defs1" />
  <sodipodi:namedview
     id="namedview1"
     pagecolor="#ffffff"
     bordercolor="#000000"
     borderopacity="0.25"
     inkscape:showpageshadow="2"
     inkscape:pageopacity="0.0"
     inkscape:pagecheckerboard="0"
     inkscape:deskcolor="#d1d1d1"
     inkscape:zoom="45.545455"
     inkscape:cx="6.00499"
     inkscape:cy="5.5"
     inkscape:window-width="1366"
     inkscape:window-height="697"
     inkscape:window-x="1912"
     inkscape:window-y="-8"
     inkscape:window-maximized="1"
     inkscape:current-layer="svg1" />
  <path
     id="Union"
     opacity="0.15"
     fill-rule="evenodd"
     clip-rule="evenodd"
     d="M 7.00047,5.5256 C 7.01398,5.49192 7.02715,5.45913 7.03997,5.42729 H 7.0155 C 7.51676,4.19517 9.04577,0.548085 9.04577,0.548085 9.29641,-0.0433295 9.67236,0.00598962 9.67236,0.00598962 H 11.3257 C 11.6766,-0.043295 11.8519,0.227761 11.8519,0.227761 c 0.3008,0.344992 0.0502,0.71461 0.0502,0.71461 L 9.69683,6.06797 c 0,0 -0.87801,1.94228 -1.48234,3.37534 0.0015,2.7e-4 0.00299,5.3e-4 0.00448,7.9e-4 L 7.76739,10.553 c 0,0 -0.00252,0.0071 -0.00782,0.0195 -0.04201,0.1078 -0.10094,0.1865 -0.16459,0.2439 -0.1073,0.108 -0.27032,0.2032 -0.50435,0.1802 h -2.3301 c 0,0 -0.37585,-0.0493 -0.52623,-0.4436 C 3.80822,9.39484 2.30437,6.06812 2.30437,6.06812 L 0.0978701,0.942515 c 0,0 -0.2505841,-0.369618 0.0501759,-0.71461 0,0 0.175345,-0.2464142 0.526232,-0.22177191 H 2.32885 c 0,0 0.37595,-0.07394789 0.62658,0.51746691 l 1.9544,4.90383 H 4.88536 c 0,0 0.37997,1.15171 1.09093,2.22631 C 6.44341,6.91308 6.77221,6.09412 7.00047,5.5256 Z"
     fill="#ffffff" />
</svg>
